# xmcd
#
# Track frame offsets:
# 150
# 33537
# 48772
# 66987
# 88672
# 117592
# 133930
# 170897
# 191037
# 223289
# 241454
#
# Disc length: 4017 seconds
#
#
# Revision: 0
# Processed by: cddbd v1.4PL0 Copyright (c) Steve Scherf et al.
# Submitted via: FreeRIP 2.35 
#
DISCID=b10faf0b
DTITLE=Paulette Power - It's About Damn Time
DYEAR=1993
DGENRE=Blues
TTITLE0=Someone Else is Stepping in
TTITLE1=Any Women Blues
TTITLE2=Man Size Job
TTITLE3=24 Hours
TTITLE4=Lie Myself
TTITLE5=Bad Intentions
TTITLE6=I'm a Woman
TTITLE7=Mutha Fo Ya
TTITLE8=Breakin Up Somebodys Home
TTITLE9=Better Be All She Needs
TTITLE10=I'd Rather Go Blind
EXTD=
EXTT0=
EXTT1=
EXTT2=
EXTT3=
EXTT4=
EXTT5=
EXTT6=
EXTT7=
EXTT8=
EXTT9=
EXTT10=
PLAYORDER=
